<?xml version="1.0" standalone="no"?>
<!DOCTYPE svg PUBLIC "-//W3C//DTD SVG 20010904//EN"
 "http://www.w3.org/TR/2001/REC-SVG-20010904/DTD/svg10.dtd">
<svg version="1.0" xmlns="http://www.w3.org/2000/svg"
 width="700.000000pt" height="456.000000pt" viewBox="0 0 700.000000 456.000000"
 preserveAspectRatio="xMidYMid meet">

<g transform="translate(0.000000,456.000000) scale(0.100000,-0.100000)"
fill="#000000" stroke="none">
<path d="M0 2280 l0 -2280 3500 0 3500 0 0 2280 0 2280 -3500 0 -3500 0 0
-2280z m3905 1029 c50 -6 154 -24 231 -40 78 -16 144 -29 148 -29 3 0 6 -92 6
-205 l0 -205 -102 0 -103 1 -37 77 c-72 153 -165 222 -331 244 -223 30 -399
-48 -500 -221 -59 -100 -102 -256 -113 -408 l-7 -93 447 0 446 0 0 -100 0
-100 -451 0 -452 0 7 -112 c27 -431 165 -648 438 -690 222 -34 422 72 531 280
l38 72 100 0 99 0 0 -204 0 -205 -57 -16 c-236 -69 -475 -99 -723 -92 -197 6
-251 17 -375 77 -224 109 -363 320 -417 635 -27 160 -22 479 11 619 74 319
241 541 488 649 176 78 391 98 678 66z"/>
</g>
</svg>
