<?xml version="1.0" standalone="no"?>
  <svg version="1.1"
      baseProfile="full"
     width="889px"
      height="387px"
     
      xmlns="http://www.w3.org/2000/svg"
      >
      <g xmlns="http://www.w3.org/2000/svg" xmlns:xlink="http://www.w3.org/1999/xlink">
      <g transform="rotate(0 351.3126056784016 141.00999873842505)"><svg id="1652643922555" opacity="1" fill="rgb(10, 20, 30)" viewBox="0 -46.79999923706055 31.969999313354492 50.39999771118164" width="38.26521135680315" preserveAspectRatio="none" height="45.55999747685013" x="332.18" y="118.23"><path id="textPath" d="M19.87-36.14L19.87-32.54C22.03-32.54 23.76-33.12 24.98-34.34C25.34-34.78 25.70-35.21 25.92-35.64C27.36-33.12 29.81-32.54 31.97-32.54L31.97-36.14C29.66-36.14 28.73-37.01 28.51-39.46C28.08-41.62 26.50-43.49 24.05-44.86C21.82-46.08 18.79-46.80 15.91-46.80C13.68-46.80 10.44-46.37 7.70-44.42C7.20-44.06 6.70-43.70 6.34-43.27C6.05-43.92 5.62-44.50 5.11-45.00C3.89-46.22 2.16-46.80 0-46.80L0-43.20C1.22-43.20 2.02-42.98 2.52-42.48C3.53-41.40 3.53-39.31 3.53-37.66C3.53-37.58 3.53-37.58 3.53-37.58L3.53-37.01L3.53-22.10C2.52-22.54 1.37-22.82 0-22.82L0-19.22C1.22-19.22 2.02-18.94 2.52-18.43C3.53-17.42 3.53-15.26 3.53-13.61L3.53-5.62C3.53-3.96 3.53-1.80 2.52-0.79C2.02-0.29 1.22 0 0 0L0 3.60C2.16 3.60 3.89 2.95 5.11 1.73C5.62 1.22 5.98 0.65 6.26 0C6.70 0.43 7.20 0.86 7.70 1.22C10.44 3.17 13.68 3.60 15.91 3.60C18.79 3.60 21.82 2.88 24.05 1.66C26.50 0.29 28.08-1.58 28.51-3.74C28.73-6.19 29.66-7.13 31.97-7.13L31.97-10.73C29.81-10.73 27.36-10.08 25.92-7.63C25.70-8.06 25.34-8.50 24.98-8.86C23.76-10.08 22.03-10.73 19.87-10.73L19.87-7.13C21.10-7.13 21.89-6.84 22.46-6.34C22.82-5.98 23.04-5.47 23.18-4.90C23.18-4.32 22.54-3.67 21.46-3.10C20.02-2.30 17.93-1.80 15.91-1.80C13.90-1.80 12.02-2.30 10.80-3.17C9.50-4.10 8.93-5.40 8.93-7.13L8.93-10.80C8.93-13.39 9.50-15.26 10.73-16.49C12.31-18.00 14.69-18.36 16.63-18.43C19.51-18.29 20.45-17.42 20.45-14.98L24.05-14.98C24.05-17.64 23.11-19.66 21.31-20.81C21.17-20.95 21.02-21.02 20.81-21.10C21.02-21.17 21.17-21.31 21.31-21.38C23.11-22.61 24.05-24.55 24.05-27.29L20.45-27.29C20.45-24.98 19.66-24.05 17.35-23.83C15.41-23.83 13.54-23.62 11.95-23.11C10.80-22.82 9.79-22.39 8.93-21.82L8.93-36.07C8.93-37.87 9.50-39.17 10.80-40.03C12.02-40.90 13.90-41.40 15.91-41.40C17.93-41.40 20.02-40.97 21.46-40.10C22.54-39.60 23.18-38.88 23.18-38.38C23.04-37.80 22.82-37.22 22.46-36.86C21.89-36.36 21.10-36.14 19.87-36.14Z" style="pointer-events: bounding-box; cursor: move;"></path></svg></g>
      </g>
  </svg>